<?xml version="1.0" encoding="UTF-8" standalone="no"?>
<!DOCTYPE svg PUBLIC "-//W3C//DTD SVG 1.1//EN"
 "http://www.w3.org/Graphics/SVG/1.1/DTD/svg11.dtd">
<!-- Generated by graphviz version 13.1.2 (20250808.2320)
 -->
<!-- Title: Projecao Pages: 1 -->
<svg width="1092pt" height="1700pt"
 viewBox="0.00 0.00 1092.00 1700.00" xmlns="http://www.w3.org/2000/svg" xmlns:xlink="http://www.w3.org/1999/xlink">
<g id="graph0" class="graph" transform="scale(1 1) rotate(0) translate(4 1696)">
<title>Projecao</title>
<polygon fill="white" stroke="none" points="-4,4 -4,-1696 1087.82,-1696 1087.82,4 -4,4"/>
<!-- censo_setor -->
<g id="node1" class="node">
<title>censo_setor</title>
<polygon fill="deepskyblue" stroke="black" points="168.79,-1692 41.86,-1692 9.21,-1656 136.14,-1656 168.79,-1692"/>
<text xml:space="preserve" text-anchor="middle" x="89" y="-1668.95" font-family="Times New Roman,serif" font-size="14.00">censo_setor</text>
</g>
<!-- filtra_setores_rurais -->
<g id="node9" class="node">
<title>filtra_setores_rurais</title>
<polygon fill="#66cdaa" stroke="black" points="151,-1620 27,-1620 27,-1584 151,-1584 151,-1620"/>
<text xml:space="preserve" text-anchor="middle" x="89" y="-1596.95" font-family="Times New Roman,serif" font-size="14.00">filtra_setores_rurais</text>
</g>
<!-- censo_setor&#45;&gt;filtra_setores_rurais -->
<g id="edge1" class="edge">
<title>censo_setor&#45;&gt;filtra_setores_rurais</title>
<path fill="none" stroke="black" d="M89,-1655.7C89,-1648.41 89,-1639.73 89,-1631.54"/>
<polygon fill="black" stroke="black" points="92.5,-1631.62 89,-1621.62 85.5,-1631.62 92.5,-1631.62"/>
</g>
<!-- parametros_interface -->
<g id="node2" class="node">
<title>parametros_interface</title>
<polygon fill="deepskyblue" stroke="black" points="1083.82,-828 875.71,-828 822.18,-792 1030.29,-792 1083.82,-828"/>
<text xml:space="preserve" text-anchor="middle" x="953" y="-804.95" font-family="Times New Roman,serif" font-size="14.00">parametros_interface</text>
</g>
<!-- custo_individual_agua -->
<g id="node21" class="node">
<title>custo_individual_agua</title>
<polygon fill="#66cdaa" stroke="black" points="679.12,-756 540.88,-756 540.88,-720 679.12,-720 679.12,-756"/>
<text xml:space="preserve" text-anchor="middle" x="610" y="-732.95" font-family="Times New Roman,serif" font-size="14.00">custo_individual_agua</text>
</g>
<!-- parametros_interface&#45;&gt;custo_individual_agua -->
<g id="edge30" class="edge">
<title>parametros_interface&#45;&gt;custo_individual_agua</title>
<path fill="none" stroke="black" d="M863.68,-791.53C815.07,-781.93 753.6,-769.64 690.31,-756.47"/>
<polygon fill="black" stroke="black" points="691.3,-753.1 680.79,-754.48 689.87,-759.95 691.3,-753.1"/>
</g>
<!-- calcula_reposicao_parcial_distribuicao -->
<g id="node29" class="node">
<title>calcula_reposicao_parcial_distribuicao</title>
<polygon fill="#66cdaa" stroke="black" points="963.38,-180 736.62,-180 736.62,-144 963.38,-144 963.38,-180"/>
<text xml:space="preserve" text-anchor="middle" x="850" y="-156.95" font-family="Times New Roman,serif" font-size="14.00">calcula_reposicao_parcial_distribuicao</text>
</g>
<!-- parametros_interface&#45;&gt;calcula_reposicao_parcial_distribuicao -->
<g id="edge31" class="edge">
<title>parametros_interface&#45;&gt;calcula_reposicao_parcial_distribuicao</title>
<path fill="none" stroke="black" d="M953,-791.51C953,-764.71 953,-711.87 953,-667 953,-667 953,-667 953,-305 953,-264.55 957.14,-249.17 934,-216 925.51,-203.83 913.23,-193.85 900.68,-185.97"/>
<polygon fill="black" stroke="black" points="902.78,-183.14 892.39,-181.11 899.25,-189.19 902.78,-183.14"/>
</g>
<!-- calcula_reposicao_parcial_producao -->
<g id="node30" class="node">
<title>calcula_reposicao_parcial_producao</title>
<polygon fill="#66cdaa" stroke="black" points="1026.62,-108 813.38,-108 813.38,-72 1026.62,-72 1026.62,-108"/>
<text xml:space="preserve" text-anchor="middle" x="920" y="-84.95" font-family="Times New Roman,serif" font-size="14.00">calcula_reposicao_parcial_producao</text>
</g>
<!-- parametros_interface&#45;&gt;calcula_reposicao_parcial_producao -->
<g id="edge32" class="edge">
<title>parametros_interface&#45;&gt;calcula_reposicao_parcial_producao</title>
<path fill="none" stroke="black" d="M960.69,-791.91C971.79,-765.62 991,-713.45 991,-667 991,-667 991,-667 991,-233 991,-192.55 991.15,-179.63 972,-144 966.57,-133.89 958.62,-124.4 950.57,-116.32"/>
<polygon fill="black" stroke="black" points="953.01,-113.81 943.33,-109.48 948.2,-118.9 953.01,-113.81"/>
</g>
<!-- taxas_crescimento -->
<g id="node3" class="node">
<title>taxas_crescimento</title>
<polygon fill="deepskyblue" stroke="black" points="429.56,-1548 244.14,-1548 196.44,-1512 381.86,-1512 429.56,-1548"/>
<text xml:space="preserve" text-anchor="middle" x="313" y="-1524.95" font-family="Times New Roman,serif" font-size="14.00">taxas_crescimento</text>
</g>
<!-- adiciona_taxa_crescimento -->
<g id="node11" class="node">
<title>adiciona_taxa_crescimento</title>
<polygon fill="#66cdaa" stroke="black" points="282.88,-1476 119.12,-1476 119.12,-1440 282.88,-1440 282.88,-1476"/>
<text xml:space="preserve" text-anchor="middle" x="201" y="-1452.95" font-family="Times New Roman,serif" font-size="14.00">adiciona_taxa_crescimento</text>
</g>
<!-- taxas_crescimento&#45;&gt;adiciona_taxa_crescimento -->
<g id="edge4" class="edge">
<title>taxas_crescimento&#45;&gt;adiciona_taxa_crescimento</title>
<path fill="none" stroke="black" d="M285.03,-1511.52C270.89,-1502.68 253.54,-1491.84 238.28,-1482.3"/>
<polygon fill="black" stroke="black" points="240.24,-1479.39 229.9,-1477.06 236.53,-1485.33 240.24,-1479.39"/>
</g>
<!-- seguranca_hidrica -->
<g id="node4" class="node">
<title>seguranca_hidrica</title>
<polygon fill="deepskyblue" stroke="black" points="607.31,-972 425.47,-972 378.69,-936 560.53,-936 607.31,-972"/>
<text xml:space="preserve" text-anchor="middle" x="493" y="-948.95" font-family="Times New Roman,serif" font-size="14.00">seguranca_hidrica</text>
</g>
<!-- adiciona_seguranca_hidrica -->
<g id="node19" class="node">
<title>adiciona_seguranca_hidrica</title>
<polygon fill="#66cdaa" stroke="black" points="468.38,-900 301.62,-900 301.62,-864 468.38,-864 468.38,-900"/>
<text xml:space="preserve" text-anchor="middle" x="385" y="-876.95" font-family="Times New Roman,serif" font-size="14.00">adiciona_seguranca_hidrica</text>
</g>
<!-- seguranca_hidrica&#45;&gt;adiciona_seguranca_hidrica -->
<g id="edge14" class="edge">
<title>seguranca_hidrica&#45;&gt;adiciona_seguranca_hidrica</title>
<path fill="none" stroke="black" d="M466.03,-935.52C452.39,-926.68 435.66,-915.84 420.95,-906.3"/>
<polygon fill="black" stroke="black" points="423.2,-903.59 412.9,-901.08 419.39,-909.46 423.2,-903.59"/>
</g>
<!-- deficit_pnad -->
<g id="node5" class="node">
<title>deficit_pnad</title>
<polygon fill="deepskyblue" stroke="black" points="437.55,-1044 304.64,-1044 270.45,-1008 403.36,-1008 437.55,-1044"/>
<text xml:space="preserve" text-anchor="middle" x="354" y="-1020.95" font-family="Times New Roman,serif" font-size="14.00">deficit_pnad</text>
</g>
<!-- adiciona_deficit_rural_agua -->
<g id="node18" class="node">
<title>adiciona_deficit_rural_agua</title>
<polygon fill="#66cdaa" stroke="black" points="360.75,-972 193.25,-972 193.25,-936 360.75,-936 360.75,-972"/>
<text xml:space="preserve" text-anchor="middle" x="277" y="-948.95" font-family="Times New Roman,serif" font-size="14.00">adiciona_deficit_rural_agua</text>
</g>
<!-- deficit_pnad&#45;&gt;adiciona_deficit_rural_agua -->
<g id="edge12" class="edge">
<title>deficit_pnad&#45;&gt;adiciona_deficit_rural_agua</title>
<path fill="none" stroke="black" d="M334.97,-1007.7C325.8,-999.37 314.65,-989.22 304.57,-980.07"/>
<polygon fill="black" stroke="black" points="306.96,-977.5 297.2,-973.37 302.25,-982.68 306.96,-977.5"/>
</g>
<!-- custo_producao -->
<g id="node6" class="node">
<title>custo_producao</title>
<polygon fill="deepskyblue" stroke="black" points="900.56,-756 739,-756 697.44,-720 859,-720 900.56,-756"/>
<text xml:space="preserve" text-anchor="middle" x="799" y="-732.95" font-family="Times New Roman,serif" font-size="14.00">custo_producao</text>
</g>
<!-- custo_producao_agua -->
<g id="node22" class="node">
<title>custo_producao_agua</title>
<polygon fill="#66cdaa" stroke="black" points="676.88,-684 543.12,-684 543.12,-648 676.88,-648 676.88,-684"/>
<text xml:space="preserve" text-anchor="middle" x="610" y="-660.95" font-family="Times New Roman,serif" font-size="14.00">custo_producao_agua</text>
</g>
<!-- custo_producao&#45;&gt;custo_producao_agua -->
<g id="edge19" class="edge">
<title>custo_producao&#45;&gt;custo_producao_agua</title>
<path fill="none" stroke="black" d="M751.79,-719.52C726.22,-710.04 694.41,-698.26 667.4,-688.26"/>
<polygon fill="black" stroke="black" points="668.94,-685.1 658.35,-684.91 666.51,-691.66 668.94,-685.1"/>
</g>
<!-- custo_distribuicao -->
<g id="node7" class="node">
<title>custo_distribuicao</title>
<polygon fill="deepskyblue" stroke="black" points="925.06,-684 742.02,-684 694.94,-648 877.98,-648 925.06,-684"/>
<text xml:space="preserve" text-anchor="middle" x="810" y="-660.95" font-family="Times New Roman,serif" font-size="14.00">custo_distribuicao</text>
</g>
<!-- custo_distribuicao_agua -->
<g id="node23" class="node">
<title>custo_distribuicao_agua</title>
<polygon fill="#66cdaa" stroke="black" points="883.62,-612 736.38,-612 736.38,-576 883.62,-576 883.62,-612"/>
<text xml:space="preserve" text-anchor="middle" x="810" y="-588.95" font-family="Times New Roman,serif" font-size="14.00">custo_distribuicao_agua</text>
</g>
<!-- custo_distribuicao&#45;&gt;custo_distribuicao_agua -->
<g id="edge21" class="edge">
<title>custo_distribuicao&#45;&gt;custo_distribuicao_agua</title>
<path fill="none" stroke="black" d="M810,-647.7C810,-640.41 810,-631.73 810,-623.54"/>
<polygon fill="black" stroke="black" points="813.5,-623.62 810,-613.62 806.5,-623.62 813.5,-623.62"/>
</g>
<!-- custo_rural_individual -->
<g id="node8" class="node">
<title>custo_rural_individual</title>
<polygon fill="deepskyblue" stroke="black" points="776.33,-828 556.28,-828 499.67,-792 719.72,-792 776.33,-828"/>
<text xml:space="preserve" text-anchor="middle" x="638" y="-804.95" font-family="Times New Roman,serif" font-size="14.00">custo_rural_individual</text>
</g>
<!-- custo_rural_individual&#45;&gt;custo_individual_agua -->
<g id="edge17" class="edge">
<title>custo_rural_individual&#45;&gt;custo_individual_agua</title>
<path fill="none" stroke="black" d="M631.08,-791.7C628.06,-784.15 624.45,-775.12 621.07,-766.68"/>
<polygon fill="black" stroke="black" points="624.37,-765.49 617.4,-757.51 617.87,-768.09 624.37,-765.49"/>
</g>
<!-- codigo_setor_para_municipio -->
<g id="node10" class="node">
<title>codigo_setor_para_municipio</title>
<polygon fill="#66cdaa" stroke="black" points="178,-1548 0,-1548 0,-1512 178,-1512 178,-1548"/>
<text xml:space="preserve" text-anchor="middle" x="89" y="-1524.95" font-family="Times New Roman,serif" font-size="14.00">codigo_setor_para_municipio</text>
</g>
<!-- filtra_setores_rurais&#45;&gt;codigo_setor_para_municipio -->
<g id="edge2" class="edge">
<title>filtra_setores_rurais&#45;&gt;codigo_setor_para_municipio</title>
<path fill="none" stroke="black" d="M89,-1583.7C89,-1576.41 89,-1567.73 89,-1559.54"/>
<polygon fill="black" stroke="black" points="92.5,-1559.62 89,-1549.62 85.5,-1559.62 92.5,-1559.62"/>
</g>
<!-- codigo_setor_para_municipio&#45;&gt;adiciona_taxa_crescimento -->
<g id="edge3" class="edge">
<title>codigo_setor_para_municipio&#45;&gt;adiciona_taxa_crescimento</title>
<path fill="none" stroke="black" d="M116.97,-1511.52C131.11,-1502.68 148.46,-1491.84 163.72,-1482.3"/>
<polygon fill="black" stroke="black" points="165.47,-1485.33 172.1,-1477.06 161.76,-1479.39 165.47,-1485.33"/>
</g>
<!-- fazer_projecao_domicilio -->
<g id="node12" class="node">
<title>fazer_projecao_domicilio</title>
<polygon fill="#66cdaa" stroke="black" points="278.75,-1404 123.25,-1404 123.25,-1368 278.75,-1368 278.75,-1404"/>
<text xml:space="preserve" text-anchor="middle" x="201" y="-1380.95" font-family="Times New Roman,serif" font-size="14.00">fazer_projecao_domicilio</text>
</g>
<!-- adiciona_taxa_crescimento&#45;&gt;fazer_projecao_domicilio -->
<g id="edge5" class="edge">
<title>adiciona_taxa_crescimento&#45;&gt;fazer_projecao_domicilio</title>
<path fill="none" stroke="black" d="M201,-1439.7C201,-1432.41 201,-1423.73 201,-1415.54"/>
<polygon fill="black" stroke="black" points="204.5,-1415.62 201,-1405.62 197.5,-1415.62 204.5,-1415.62"/>
</g>
<!-- densidade_setor -->
<g id="node13" class="node">
<title>densidade_setor</title>
<polygon fill="#66cdaa" stroke="black" points="252.5,-1332 149.5,-1332 149.5,-1296 252.5,-1296 252.5,-1332"/>
<text xml:space="preserve" text-anchor="middle" x="201" y="-1308.95" font-family="Times New Roman,serif" font-size="14.00">densidade_setor</text>
</g>
<!-- fazer_projecao_domicilio&#45;&gt;densidade_setor -->
<g id="edge6" class="edge">
<title>fazer_projecao_domicilio&#45;&gt;densidade_setor</title>
<path fill="none" stroke="black" d="M201,-1367.7C201,-1360.41 201,-1351.73 201,-1343.54"/>
<polygon fill="black" stroke="black" points="204.5,-1343.62 201,-1333.62 197.5,-1343.62 204.5,-1343.62"/>
</g>
<!-- classifica_densidade_setor -->
<g id="node14" class="node">
<title>classifica_densidade_setor</title>
<polygon fill="#66cdaa" stroke="black" points="281,-1260 121,-1260 121,-1224 281,-1224 281,-1260"/>
<text xml:space="preserve" text-anchor="middle" x="201" y="-1236.95" font-family="Times New Roman,serif" font-size="14.00">classifica_densidade_setor</text>
</g>
<!-- densidade_setor&#45;&gt;classifica_densidade_setor -->
<g id="edge7" class="edge">
<title>densidade_setor&#45;&gt;classifica_densidade_setor</title>
<path fill="none" stroke="black" d="M201,-1295.7C201,-1288.41 201,-1279.73 201,-1271.54"/>
<polygon fill="black" stroke="black" points="204.5,-1271.62 201,-1261.62 197.5,-1271.62 204.5,-1271.62"/>
</g>
<!-- classifica_deficit_setor -->
<g id="node15" class="node">
<title>classifica_deficit_setor</title>
<polygon fill="#66cdaa" stroke="black" points="271.25,-1188 130.75,-1188 130.75,-1152 271.25,-1152 271.25,-1188"/>
<text xml:space="preserve" text-anchor="middle" x="201" y="-1164.95" font-family="Times New Roman,serif" font-size="14.00">classifica_deficit_setor</text>
</g>
<!-- classifica_densidade_setor&#45;&gt;classifica_deficit_setor -->
<g id="edge8" class="edge">
<title>classifica_densidade_setor&#45;&gt;classifica_deficit_setor</title>
<path fill="none" stroke="black" d="M201,-1223.7C201,-1216.41 201,-1207.73 201,-1199.54"/>
<polygon fill="black" stroke="black" points="204.5,-1199.62 201,-1189.62 197.5,-1199.62 204.5,-1199.62"/>
</g>
<!-- adiciona_estado -->
<g id="node16" class="node">
<title>adiciona_estado</title>
<polygon fill="#66cdaa" stroke="black" points="252.5,-1116 149.5,-1116 149.5,-1080 252.5,-1080 252.5,-1116"/>
<text xml:space="preserve" text-anchor="middle" x="201" y="-1092.95" font-family="Times New Roman,serif" font-size="14.00">adiciona_estado</text>
</g>
<!-- classifica_deficit_setor&#45;&gt;adiciona_estado -->
<g id="edge9" class="edge">
<title>classifica_deficit_setor&#45;&gt;adiciona_estado</title>
<path fill="none" stroke="black" d="M201,-1151.7C201,-1144.41 201,-1135.73 201,-1127.54"/>
<polygon fill="black" stroke="black" points="204.5,-1127.62 201,-1117.62 197.5,-1127.62 204.5,-1127.62"/>
</g>
<!-- adiciona_regiao -->
<g id="node17" class="node">
<title>adiciona_regiao</title>
<polygon fill="#66cdaa" stroke="black" points="252.12,-1044 149.88,-1044 149.88,-1008 252.12,-1008 252.12,-1044"/>
<text xml:space="preserve" text-anchor="middle" x="201" y="-1020.95" font-family="Times New Roman,serif" font-size="14.00">adiciona_regiao</text>
</g>
<!-- adiciona_estado&#45;&gt;adiciona_regiao -->
<g id="edge10" class="edge">
<title>adiciona_estado&#45;&gt;adiciona_regiao</title>
<path fill="none" stroke="black" d="M201,-1079.7C201,-1072.41 201,-1063.73 201,-1055.54"/>
<polygon fill="black" stroke="black" points="204.5,-1055.62 201,-1045.62 197.5,-1055.62 204.5,-1055.62"/>
</g>
<!-- adiciona_regiao&#45;&gt;adiciona_deficit_rural_agua -->
<g id="edge11" class="edge">
<title>adiciona_regiao&#45;&gt;adiciona_deficit_rural_agua</title>
<path fill="none" stroke="black" d="M219.79,-1007.7C228.83,-999.37 239.84,-989.22 249.78,-980.07"/>
<polygon fill="black" stroke="black" points="252.07,-982.72 257.05,-973.37 247.33,-977.57 252.07,-982.72"/>
</g>
<!-- adiciona_deficit_rural_agua&#45;&gt;adiciona_seguranca_hidrica -->
<g id="edge13" class="edge">
<title>adiciona_deficit_rural_agua&#45;&gt;adiciona_seguranca_hidrica</title>
<path fill="none" stroke="black" d="M303.97,-935.52C317.61,-926.68 334.34,-915.84 349.05,-906.3"/>
<polygon fill="black" stroke="black" points="350.61,-909.46 357.1,-901.08 346.8,-903.59 350.61,-909.46"/>
</g>
<!-- fracao_coletivo_individual_agua -->
<g id="node20" class="node">
<title>fracao_coletivo_individual_agua</title>
<polygon fill="#66cdaa" stroke="black" points="481.88,-828 288.12,-828 288.12,-792 481.88,-792 481.88,-828"/>
<text xml:space="preserve" text-anchor="middle" x="385" y="-804.95" font-family="Times New Roman,serif" font-size="14.00">fracao_coletivo_individual_agua</text>
</g>
<!-- adiciona_seguranca_hidrica&#45;&gt;fracao_coletivo_individual_agua -->
<g id="edge15" class="edge">
<title>adiciona_seguranca_hidrica&#45;&gt;fracao_coletivo_individual_agua</title>
<path fill="none" stroke="black" d="M385,-863.7C385,-856.41 385,-847.73 385,-839.54"/>
<polygon fill="black" stroke="black" points="388.5,-839.62 385,-829.62 381.5,-839.62 388.5,-839.62"/>
</g>
<!-- fracao_coletivo_individual_agua&#45;&gt;custo_individual_agua -->
<g id="edge16" class="edge">
<title>fracao_coletivo_individual_agua&#45;&gt;custo_individual_agua</title>
<path fill="none" stroke="black" d="M441.2,-791.52C472.19,-781.88 510.86,-769.84 543.36,-759.73"/>
<polygon fill="black" stroke="black" points="544.18,-763.14 552.69,-756.83 542.1,-756.46 544.18,-763.14"/>
</g>
<!-- custo_individual_agua&#45;&gt;custo_producao_agua -->
<g id="edge18" class="edge">
<title>custo_individual_agua&#45;&gt;custo_producao_agua</title>
<path fill="none" stroke="black" d="M610,-719.7C610,-712.41 610,-703.73 610,-695.54"/>
<polygon fill="black" stroke="black" points="613.5,-695.62 610,-685.62 606.5,-695.62 613.5,-695.62"/>
</g>
<!-- custo_producao_agua&#45;&gt;custo_distribuicao_agua -->
<g id="edge20" class="edge">
<title>custo_producao_agua&#45;&gt;custo_distribuicao_agua</title>
<path fill="none" stroke="black" d="M659.95,-647.52C687.14,-638 720.98,-626.16 749.63,-616.13"/>
<polygon fill="black" stroke="black" points="750.63,-619.49 758.91,-612.88 748.31,-612.88 750.63,-619.49"/>
</g>
<!-- domicilios_com_deficit_agua -->
<g id="node24" class="node">
<title>domicilios_com_deficit_agua</title>
<polygon fill="#66cdaa" stroke="black" points="901,-540 723,-540 723,-504 901,-504 901,-540"/>
<text xml:space="preserve" text-anchor="middle" x="812" y="-516.95" font-family="Times New Roman,serif" font-size="14.00">domicilios_com_deficit_agua</text>
</g>
<!-- custo_distribuicao_agua&#45;&gt;domicilios_com_deficit_agua -->
<g id="edge22" class="edge">
<title>custo_distribuicao_agua&#45;&gt;domicilios_com_deficit_agua</title>
<path fill="none" stroke="black" d="M810.49,-575.7C810.7,-568.41 810.95,-559.73 811.18,-551.54"/>
<polygon fill="black" stroke="black" points="814.68,-551.71 811.47,-541.62 807.68,-551.51 814.68,-551.71"/>
</g>
<!-- habitantes_com_deficit_agua -->
<g id="node25" class="node">
<title>habitantes_com_deficit_agua</title>
<polygon fill="#66cdaa" stroke="black" points="906.5,-468 731.5,-468 731.5,-432 906.5,-432 906.5,-468"/>
<text xml:space="preserve" text-anchor="middle" x="819" y="-444.95" font-family="Times New Roman,serif" font-size="14.00">habitantes_com_deficit_agua</text>
</g>
<!-- domicilios_com_deficit_agua&#45;&gt;habitantes_com_deficit_agua -->
<g id="edge23" class="edge">
<title>domicilios_com_deficit_agua&#45;&gt;habitantes_com_deficit_agua</title>
<path fill="none" stroke="black" d="M813.73,-503.7C814.46,-496.41 815.33,-487.73 816.15,-479.54"/>
<polygon fill="black" stroke="black" points="819.63,-479.91 817.14,-469.61 812.66,-479.21 819.63,-479.91"/>
</g>
<!-- domicilios_adequados_com_agua -->
<g id="node26" class="node">
<title>domicilios_adequados_com_agua</title>
<polygon fill="#66cdaa" stroke="black" points="923.25,-396 722.75,-396 722.75,-360 923.25,-360 923.25,-396"/>
<text xml:space="preserve" text-anchor="middle" x="823" y="-372.95" font-family="Times New Roman,serif" font-size="14.00">domicilios_adequados_com_agua</text>
</g>
<!-- habitantes_com_deficit_agua&#45;&gt;domicilios_adequados_com_agua -->
<g id="edge24" class="edge">
<title>habitantes_com_deficit_agua&#45;&gt;domicilios_adequados_com_agua</title>
<path fill="none" stroke="black" d="M819.99,-431.7C820.41,-424.41 820.9,-415.73 821.37,-407.54"/>
<polygon fill="black" stroke="black" points="824.86,-407.8 821.94,-397.62 817.87,-407.4 824.86,-407.8"/>
</g>
<!-- investimento_rural_agua -->
<g id="node27" class="node">
<title>investimento_rural_agua</title>
<polygon fill="#66cdaa" stroke="black" points="901.5,-324 750.5,-324 750.5,-288 901.5,-288 901.5,-324"/>
<text xml:space="preserve" text-anchor="middle" x="826" y="-300.95" font-family="Times New Roman,serif" font-size="14.00">investimento_rural_agua</text>
</g>
<!-- domicilios_adequados_com_agua&#45;&gt;investimento_rural_agua -->
<g id="edge25" class="edge">
<title>domicilios_adequados_com_agua&#45;&gt;investimento_rural_agua</title>
<path fill="none" stroke="black" d="M823.74,-359.7C824.05,-352.41 824.43,-343.73 824.78,-335.54"/>
<polygon fill="black" stroke="black" points="828.27,-335.76 825.2,-325.62 821.28,-335.46 828.27,-335.76"/>
</g>
<!-- capacidade_instalada_rural_agua -->
<g id="node28" class="node">
<title>capacidade_instalada_rural_agua</title>
<polygon fill="#66cdaa" stroke="black" points="924.62,-252 729.38,-252 729.38,-216 924.62,-216 924.62,-252"/>
<text xml:space="preserve" text-anchor="middle" x="827" y="-228.95" font-family="Times New Roman,serif" font-size="14.00">capacidade_instalada_rural_agua</text>
</g>
<!-- investimento_rural_agua&#45;&gt;capacidade_instalada_rural_agua -->
<g id="edge26" class="edge">
<title>investimento_rural_agua&#45;&gt;capacidade_instalada_rural_agua</title>
<path fill="none" stroke="black" d="M826.25,-287.7C826.35,-280.41 826.48,-271.73 826.59,-263.54"/>
<polygon fill="black" stroke="black" points="830.09,-263.67 826.73,-253.62 823.09,-263.57 830.09,-263.67"/>
</g>
<!-- capacidade_instalada_rural_agua&#45;&gt;calcula_reposicao_parcial_distribuicao -->
<g id="edge27" class="edge">
<title>capacidade_instalada_rural_agua&#45;&gt;calcula_reposicao_parcial_distribuicao</title>
<path fill="none" stroke="black" d="M832.69,-215.7C835.14,-208.24 838.07,-199.32 840.81,-190.97"/>
<polygon fill="black" stroke="black" points="844.11,-192.14 843.91,-181.54 837.46,-189.95 844.11,-192.14"/>
</g>
<!-- calcula_reposicao_parcial_distribuicao&#45;&gt;calcula_reposicao_parcial_producao -->
<g id="edge28" class="edge">
<title>calcula_reposicao_parcial_distribuicao&#45;&gt;calcula_reposicao_parcial_producao</title>
<path fill="none" stroke="black" d="M867.3,-143.7C875.61,-135.39 885.72,-125.28 894.86,-116.14"/>
<polygon fill="black" stroke="black" points="897.23,-118.72 901.83,-109.17 892.28,-113.77 897.23,-118.72"/>
</g>
<!-- consolida_investimentos_rural_agua -->
<g id="node31" class="node">
<title>consolida_investimentos_rural_agua</title>
<polygon fill="#66cdaa" stroke="black" points="1027.38,-36 812.62,-36 812.62,0 1027.38,0 1027.38,-36"/>
<text xml:space="preserve" text-anchor="middle" x="920" y="-12.95" font-family="Times New Roman,serif" font-size="14.00">consolida_investimentos_rural_agua</text>
</g>
<!-- calcula_reposicao_parcial_producao&#45;&gt;consolida_investimentos_rural_agua -->
<g id="edge29" class="edge">
<title>calcula_reposicao_parcial_producao&#45;&gt;consolida_investimentos_rural_agua</title>
<path fill="none" stroke="black" d="M920,-71.7C920,-64.41 920,-55.73 920,-47.54"/>
<polygon fill="black" stroke="black" points="923.5,-47.62 920,-37.62 916.5,-47.62 923.5,-47.62"/>
</g>
</g>
</svg>
