<?xml version="1.0" encoding="UTF-8" standalone="no"?>
<!DOCTYPE svg PUBLIC "-//W3C//DTD SVG 1.1//EN"
 "http://www.w3.org/Graphics/SVG/1.1/DTD/svg11.dtd">
<!-- Generated by graphviz version 13.1.2 (20250808.2320)
 -->
<!-- Title: Projecao Pages: 1 -->
<svg width="461pt" height="498pt"
 viewBox="0.00 0.00 461.00 498.00" xmlns="http://www.w3.org/2000/svg" xmlns:xlink="http://www.w3.org/1999/xlink">
<g id="graph0" class="graph" transform="scale(1 1) rotate(0) translate(4 493.5)">
<title>Projecao</title>
<polygon fill="white" stroke="none" points="-4,4 -4,-493.5 456.6,-493.5 456.6,4 -4,4"/>
<!-- condition -->
<g id="node1" class="node">
<title>condition</title>
<polygon fill="#ffefdb" stroke="black" points="153.53,-416.5 91.04,-398.5 153.53,-380.5 216.02,-398.5 153.53,-416.5"/>
<text xml:space="preserve" text-anchor="middle" x="153.53" y="-393.45" font-family="Times New Roman,serif" font-size="14.00">É censo?</text>
</g>
<!-- junta_fontes_populacao -->
<g id="node6" class="node">
<title>junta_fontes_populacao</title>
<polygon fill="#66cdaa" stroke="black" points="210.03,-255 65.03,-255 65.03,-219 210.03,-219 210.03,-255"/>
<text xml:space="preserve" text-anchor="middle" x="137.53" y="-231.95" font-family="Times New Roman,serif" font-size="14.00">junta_fontes_populacao</text>
</g>
<!-- condition&#45;&gt;junta_fontes_populacao -->
<g id="edge5" class="edge">
<title>condition&#45;&gt;junta_fontes_populacao</title>
<path fill="none" stroke="black" d="M151.65,-380.65C150.09,-366.58 147.85,-345.99 146.03,-328 143.95,-307.45 141.76,-284.24 140.12,-266.53"/>
<polygon fill="black" stroke="black" points="143.63,-266.41 139.23,-256.77 136.66,-267.05 143.63,-266.41"/>
<text xml:space="preserve" text-anchor="middle" x="149.78" y="-304.95" font-family="Times New Roman,serif" font-size="14.00">S</text>
</g>
<!-- preenche_situacao -->
<g id="node7" class="node">
<title>preenche_situacao</title>
<polygon fill="#66cdaa" stroke="black" points="278.4,-328 162.65,-328 162.65,-292 278.4,-292 278.4,-328"/>
<text xml:space="preserve" text-anchor="middle" x="220.53" y="-304.95" font-family="Times New Roman,serif" font-size="14.00">preenche_situacao</text>
</g>
<!-- condition&#45;&gt;preenche_situacao -->
<g id="edge3" class="edge">
<title>condition&#45;&gt;preenche_situacao</title>
<path fill="none" stroke="black" d="M164.59,-383.22C174.26,-370.74 188.53,-352.31 200.24,-337.19"/>
<polygon fill="black" stroke="black" points="202.85,-339.53 206.21,-329.48 197.32,-335.25 202.85,-339.53"/>
<text xml:space="preserve" text-anchor="middle" x="197.9" y="-349.2" font-family="Times New Roman,serif" font-size="14.00">N</text>
</g>
<!-- fonte1 -->
<g id="node2" class="node">
<title>fonte1</title>
<polygon fill="deepskyblue" stroke="black" points="101.05,-328 20.68,-328 0,-292 80.38,-292 101.05,-328"/>
<text xml:space="preserve" text-anchor="middle" x="50.53" y="-304.95" font-family="Times New Roman,serif" font-size="14.00">fonte1</text>
</g>
<!-- fonte1&#45;&gt;junta_fontes_populacao -->
<g id="edge1" class="edge">
<title>fonte1&#45;&gt;junta_fontes_populacao</title>
<path fill="none" stroke="black" d="M71.59,-291.81C82.41,-282.98 95.78,-272.07 107.65,-262.39"/>
<polygon fill="black" stroke="black" points="109.65,-265.27 115.19,-256.23 105.23,-259.84 109.65,-265.27"/>
</g>
<!-- fonte2 -->
<g id="node3" class="node">
<title>fonte2</title>
<polygon fill="deepskyblue" stroke="black" points="204.05,-489.5 123.68,-489.5 103,-453.5 183.38,-453.5 204.05,-489.5"/>
<text xml:space="preserve" text-anchor="middle" x="153.53" y="-466.45" font-family="Times New Roman,serif" font-size="14.00">fonte2</text>
</g>
<!-- fonte2&#45;&gt;condition -->
<g id="edge2" class="edge">
<title>fonte2&#45;&gt;condition</title>
<path fill="none" stroke="black" d="M153.53,-453.31C153.53,-445.73 153.53,-436.6 153.53,-428.04"/>
<polygon fill="black" stroke="black" points="157.03,-428.04 153.53,-418.04 150.03,-428.04 157.03,-428.04"/>
</g>
<!-- taxas_crescimento -->
<g id="node4" class="node">
<title>taxas_crescimento</title>
<polygon fill="deepskyblue" stroke="black" points="242.09,-109 56.66,-109 8.96,-73 194.39,-73 242.09,-109"/>
<text xml:space="preserve" text-anchor="middle" x="125.53" y="-85.95" font-family="Times New Roman,serif" font-size="14.00">taxas_crescimento</text>
</g>
<!-- projecao_populacional -->
<g id="node5" class="node">
<title>projecao_populacional</title>
<polygon fill="deepskyblue" stroke="black" points="452.6,-36 231.36,-36 174.45,0 395.69,0 452.6,-36"/>
<text xml:space="preserve" text-anchor="middle" x="313.53" y="-12.95" font-family="Times New Roman,serif" font-size="14.00">projecao_populacional</text>
</g>
<!-- calcula_taxa_crescimento -->
<g id="node8" class="node">
<title>calcula_taxa_crescimento</title>
<polygon fill="#66cdaa" stroke="black" points="215.65,-182 59.4,-182 59.4,-146 215.65,-146 215.65,-182"/>
<text xml:space="preserve" text-anchor="middle" x="137.53" y="-158.95" font-family="Times New Roman,serif" font-size="14.00">calcula_taxa_crescimento</text>
</g>
<!-- junta_fontes_populacao&#45;&gt;calcula_taxa_crescimento -->
<g id="edge6" class="edge">
<title>junta_fontes_populacao&#45;&gt;calcula_taxa_crescimento</title>
<path fill="none" stroke="black" d="M137.53,-218.81C137.53,-211.23 137.53,-202.1 137.53,-193.54"/>
<polygon fill="black" stroke="black" points="141.03,-193.54 137.53,-183.54 134.03,-193.54 141.03,-193.54"/>
</g>
<!-- preenche_situacao&#45;&gt;junta_fontes_populacao -->
<g id="edge4" class="edge">
<title>preenche_situacao&#45;&gt;junta_fontes_populacao</title>
<path fill="none" stroke="black" d="M200.44,-291.81C190.21,-283.07 177.61,-272.28 166.37,-262.67"/>
<polygon fill="black" stroke="black" points="168.75,-260.1 158.87,-256.26 164.2,-265.42 168.75,-260.1"/>
</g>
<!-- calcula_taxa_crescimento&#45;&gt;taxas_crescimento -->
<g id="edge9" class="edge">
<title>calcula_taxa_crescimento&#45;&gt;taxas_crescimento</title>
<path fill="none" stroke="black" d="M134.62,-145.81C133.33,-138.14 131.76,-128.89 130.3,-120.24"/>
<polygon fill="black" stroke="black" points="133.78,-119.8 128.66,-110.52 126.87,-120.96 133.78,-119.8"/>
</g>
<!-- calcula_projecao -->
<g id="node9" class="node">
<title>calcula_projecao</title>
<polygon fill="#66cdaa" stroke="black" points="367.28,-109 259.78,-109 259.78,-73 367.28,-73 367.28,-109"/>
<text xml:space="preserve" text-anchor="middle" x="313.53" y="-85.95" font-family="Times New Roman,serif" font-size="14.00">calcula_projecao</text>
</g>
<!-- calcula_taxa_crescimento&#45;&gt;calcula_projecao -->
<g id="edge7" class="edge">
<title>calcula_taxa_crescimento&#45;&gt;calcula_projecao</title>
<path fill="none" stroke="black" d="M180.58,-145.63C204.45,-136 234.34,-123.95 259.73,-113.7"/>
<polygon fill="black" stroke="black" points="260.94,-116.99 268.9,-110 258.32,-110.5 260.94,-116.99"/>
</g>
<!-- calcula_projecao&#45;&gt;projecao_populacional -->
<g id="edge8" class="edge">
<title>calcula_projecao&#45;&gt;projecao_populacional</title>
<path fill="none" stroke="black" d="M313.53,-72.81C313.53,-65.23 313.53,-56.1 313.53,-47.54"/>
<polygon fill="black" stroke="black" points="317.03,-47.54 313.53,-37.54 310.03,-47.54 317.03,-47.54"/>
</g>
</g>
</svg>
